<svg width="14" height="14" viewBox="0 0 14 14" fill="none" xmlns="http://www.w3.org/2000/svg">
<path d="M13.9067 0.723333C13.7883 0.438259 13.5618 0.211721 13.2767 0.0933332C13.1365 0.0335521 12.9858 0.00184332 12.8334 0H1.16672C0.857298 0 0.560552 0.122917 0.34176 0.341709C0.122967 0.560501 5.08623e-05 0.857247 5.08623e-05 1.16667C5.08623e-05 1.47609 0.122967 1.77283 0.34176 1.99162C0.560552 2.21042 0.857298 2.33333 1.16672 2.33333H10.0217L0.338384 12.005C0.229034 12.1135 0.142241 12.2425 0.0830112 12.3847C0.023781 12.5268 -0.00671387 12.6793 -0.00671387 12.8333C-0.00671387 12.9873 0.023781 13.1398 0.0830112 13.282C0.142241 13.4242 0.229034 13.5532 0.338384 13.6617C0.446841 13.771 0.575875 13.8578 0.718045 13.917C0.860214 13.9763 1.0127 14.0068 1.16672 14.0068C1.32073 14.0068 1.47322 13.9763 1.61539 13.917C1.75756 13.8578 1.88659 13.771 1.99505 13.6617L11.6667 3.97833V12.8333C11.6667 13.1428 11.7896 13.4395 12.0084 13.6583C12.2272 13.8771 12.524 14 12.8334 14C13.1428 14 13.4396 13.8771 13.6583 13.6583C13.8771 13.4395 14.0001 13.1428 14.0001 12.8333V1.16667C13.9982 1.01421 13.9665 0.863593 13.9067 0.723333Z" fill="white"/>
</svg>
