<svg width="12" height="12" viewBox="0 0 12 12" fill="none" xmlns="http://www.w3.org/2000/svg">
<path d="M11.4267 1.06833C11.3337 0.844346 11.1557 0.666352 10.9317 0.573333C10.8215 0.526362 10.7031 0.501448 10.5833 0.5H1.41667C1.17356 0.5 0.940399 0.596577 0.768491 0.768486C0.596582 0.940394 0.500005 1.17355 0.500005 1.41667C0.500005 1.65978 0.596582 1.89294 0.768491 2.06485C0.940399 2.23676 1.17356 2.33333 1.41667 2.33333H8.37417L0.765838 9.9325C0.679921 10.0177 0.611726 10.1191 0.565188 10.2308C0.51865 10.3425 0.49469 10.4623 0.49469 10.5833C0.49469 10.7043 0.51865 10.8242 0.565188 10.9359C0.611726 11.0476 0.679921 11.149 0.765838 11.2342C0.851054 11.3201 0.952439 11.3883 1.06414 11.4348C1.17585 11.4814 1.29566 11.5053 1.41667 11.5053C1.53768 11.5053 1.6575 11.4814 1.7692 11.4348C1.8809 11.3883 1.98229 11.3201 2.06751 11.2342L9.66667 3.62583V10.5833C9.66667 10.8264 9.76325 11.0596 9.93516 11.2315C10.1071 11.4034 10.3402 11.5 10.5833 11.5C10.8265 11.5 11.0596 11.4034 11.2315 11.2315C11.4034 11.0596 11.5 10.8264 11.5 10.5833V1.41667C11.4986 1.29688 11.4736 1.17854 11.4267 1.06833Z" fill="#5200FF"/>
</svg>
