<svg width="12" height="12" viewBox="0 0 12 12" fill="none" xmlns="http://www.w3.org/2000/svg">
<path d="M11.4267 1.06833C11.3336 0.844346 11.1557 0.666352 10.9317 0.573333C10.8215 0.526362 10.7031 0.501448 10.5833 0.5H1.41666C1.17355 0.5 0.940391 0.596577 0.768483 0.768486C0.596575 0.940394 0.499997 1.17355 0.499997 1.41667C0.499997 1.65978 0.596575 1.89294 0.768483 2.06485C0.940391 2.23676 1.17355 2.33333 1.41666 2.33333H8.37417L0.765831 9.9325C0.679913 10.0177 0.611719 10.1191 0.565181 10.2308C0.518643 10.3425 0.494682 10.4623 0.494682 10.5833C0.494682 10.7043 0.518643 10.8242 0.565181 10.9359C0.611719 11.0476 0.679913 11.149 0.765831 11.2342C0.851047 11.3201 0.952431 11.3883 1.06414 11.4348C1.17584 11.4814 1.29565 11.5053 1.41666 11.5053C1.53768 11.5053 1.65749 11.4814 1.76919 11.4348C1.8809 11.3883 1.98228 11.3201 2.0675 11.2342L9.66667 3.62583V10.5833C9.66667 10.8264 9.76324 11.0596 9.93515 11.2315C10.1071 11.4034 10.3402 11.5 10.5833 11.5C10.8264 11.5 11.0596 11.4034 11.2315 11.2315C11.4034 11.0596 11.5 10.8264 11.5 10.5833V1.41667C11.4986 1.29688 11.4736 1.17854 11.4267 1.06833Z" fill="url(#paint0_linear_12_433)"/>
<defs>
<linearGradient id="paint0_linear_12_433" x1="11.5" y1="11.5053" x2="-0.552394" y2="10.205" gradientUnits="userSpaceOnUse">
<stop stop-color="#FF4D00"/>
<stop offset="1" stop-color="#FF9C41"/>
</linearGradient>
</defs>
</svg>
