<svg width="64" height="64" viewBox="0 0 64 64" fill="none" xmlns="http://www.w3.org/2000/svg">
<path opacity="0.5" d="M26.6667 53.3333H36.3376C34.4563 50.9496 33.3334 47.9392 33.3334 44.6667C33.3334 36.9347 39.6014 30.6667 47.3334 30.6667C51.9859 30.6667 56.1083 32.9363 58.6542 36.4285C58.6667 35.0712 58.6667 33.5992 58.6667 32C58.6667 30.8216 58.6667 27.712 58.6616 26.6667H5.33841C5.33337 27.712 5.33337 30.8216 5.33337 32C5.33337 42.0565 5.33337 47.0851 8.45756 50.2091C11.5818 53.3333 16.6101 53.3333 26.6667 53.3333Z" fill="url(#paint0_linear_16_440)"/>
<path d="M14 42.6667C14 41.5621 14.8954 40.6667 16 40.6667H26.6667C27.7712 40.6667 28.6667 41.5621 28.6667 42.6667C28.6667 43.7712 27.7712 44.6667 26.6667 44.6667H16C14.8954 44.6667 14 43.7712 14 42.6667Z" fill="url(#paint1_linear_16_440)"/>
<path fill-rule="evenodd" clip-rule="evenodd" d="M47.3334 38.6667C44.0198 38.6667 41.3334 41.3531 41.3334 44.6667C41.3334 47.9803 44.0198 50.6667 47.3334 50.6667C50.647 50.6667 53.3334 47.9803 53.3334 44.6667C53.3334 41.3531 50.647 38.6667 47.3334 38.6667ZM37.3334 44.6667C37.3334 39.1437 41.8104 34.6667 47.3334 34.6667C52.8563 34.6667 57.3334 39.1437 57.3334 44.6667C57.3334 46.7048 56.7235 48.6005 55.6766 50.1813L58.0808 52.5859C58.8619 53.3669 58.8619 54.6331 58.0808 55.4141C57.2998 56.1952 56.0336 56.1952 55.2526 55.4141L52.848 53.0099C51.2672 54.0568 49.3715 54.6667 47.3334 54.6667C41.8104 54.6667 37.3334 50.1896 37.3334 44.6667Z" fill="url(#paint2_linear_16_440)"/>
<path d="M26.6529 10.6667H37.3472C47.4296 10.6667 52.471 10.6667 55.6032 13.6421C57.8584 15.7844 58.4899 18.8668 58.6667 24V26.6667H5.33337V24C5.51017 18.8668 6.14164 15.7844 8.39687 13.6421C11.5291 10.6667 16.5704 10.6667 26.6529 10.6667Z" fill="url(#paint3_linear_16_440)"/>
<defs>
<linearGradient id="paint0_linear_16_440" x1="58.6667" y1="53.3333" x2="2.20801" y2="41.1506" gradientUnits="userSpaceOnUse">
<stop stop-color="#FF4D00"/>
<stop offset="1" stop-color="#FF9C41"/>
</linearGradient>
<linearGradient id="paint1_linear_16_440" x1="28.6667" y1="44.6667" x2="14.6164" y2="39.1084" gradientUnits="userSpaceOnUse">
<stop stop-color="#FF4D00"/>
<stop offset="1" stop-color="#FF9C41"/>
</linearGradient>
<linearGradient id="paint2_linear_16_440" x1="58.6666" y1="55.9999" x2="35.3037" y2="53.4793" gradientUnits="userSpaceOnUse">
<stop stop-color="#FF4D00"/>
<stop offset="1" stop-color="#FF9C41"/>
</linearGradient>
<linearGradient id="paint3_linear_16_440" x1="58.6667" y1="26.6667" x2="6.34622" y2="7.85035" gradientUnits="userSpaceOnUse">
<stop stop-color="#FF4D00"/>
<stop offset="1" stop-color="#FF9C41"/>
</linearGradient>
</defs>
</svg>
