<svg width="16" height="16" viewBox="0 0 16 16" fill="none" xmlns="http://www.w3.org/2000/svg">
<path d="M2.48709 5.15663L2.01675 7.87649C1.89929 8.55583 2.42169 9.17716 3.11035 9.17716H6.56442C6.90675 9.17716 7.16742 9.48444 7.11202 9.82264L6.67022 12.519C6.59842 12.9571 6.61895 13.4053 6.73042 13.8349C6.82275 14.1909 7.09735 14.4767 7.45849 14.5927L7.55515 14.6237C7.77342 14.6938 8.01162 14.6775 8.21742 14.5784C8.44388 14.4692 8.60962 14.2701 8.67102 14.0334L8.98815 12.8108C9.08908 12.4218 9.23602 12.0463 9.42555 11.6915C9.70246 11.1732 10.1306 10.7583 10.5756 10.3748L11.5348 9.5483C11.8052 9.31523 11.9472 8.96623 11.9165 8.61036L11.375 2.34856C11.3253 1.77423 10.8451 1.33329 10.2693 1.33329H7.17022C4.84935 1.33329 2.86868 2.95036 2.48709 5.15663Z" fill="#FF5252"/>
<path opacity="0.5" fill-rule="evenodd" clip-rule="evenodd" d="M14.0216 9.67665C13.754 9.68819 13.5249 9.48695 13.5019 9.22017L12.8541 1.72917C12.8125 1.24797 13.1915 0.833239 13.6755 0.833239C14.1314 0.833239 14.5 1.20311 14.5 1.65811V9.17711C14.5 9.44487 14.2891 9.6651 14.0216 9.67665Z" fill="#FF5252"/>
</svg>
