<svg width="20" height="20" viewBox="0 0 20 20" fill="none" xmlns="http://www.w3.org/2000/svg">
<path d="M9.99996 9.16663C9.77895 9.16663 9.56699 9.25442 9.41071 9.4107C9.25443 9.56698 9.16663 9.77895 9.16663 9.99996V13.3333C9.16663 13.5543 9.25443 13.7663 9.41071 13.9225C9.56699 14.0788 9.77895 14.1666 9.99996 14.1666C10.221 14.1666 10.4329 14.0788 10.5892 13.9225C10.7455 13.7663 10.8333 13.5543 10.8333 13.3333V9.99996C10.8333 9.77895 10.7455 9.56698 10.5892 9.4107C10.4329 9.25442 10.221 9.16663 9.99996 9.16663ZM10.3166 5.89996C10.1137 5.81661 9.88618 5.81661 9.6833 5.89996C9.581 5.93962 9.48755 5.99909 9.4083 6.07496C9.33469 6.15596 9.2755 6.24897 9.2333 6.34996C9.18665 6.44886 9.16381 6.55731 9.16663 6.66663C9.166 6.7763 9.18702 6.88502 9.22849 6.98655C9.26996 7.08808 9.33106 7.18043 9.4083 7.25829C9.4893 7.3319 9.58231 7.39109 9.6833 7.43329C9.80954 7.48516 9.9466 7.50522 10.0824 7.49172C10.2182 7.47822 10.3487 7.43156 10.4622 7.35585C10.5758 7.28014 10.669 7.1777 10.7337 7.05752C10.7984 6.93734 10.8326 6.80311 10.8333 6.66663C10.8302 6.44599 10.7439 6.23465 10.5916 6.07496C10.5124 5.99909 10.4189 5.93962 10.3166 5.89996ZM9.99996 1.66663C8.35179 1.66663 6.74062 2.15537 5.37021 3.07105C3.9998 3.98672 2.9317 5.28821 2.30097 6.81093C1.67024 8.33365 1.50521 10.0092 1.82675 11.6257C2.1483 13.2422 2.94197 14.7271 4.10741 15.8925C5.27284 17.058 6.7577 17.8516 8.37421 18.1732C9.99072 18.4947 11.6663 18.3297 13.189 17.699C14.7117 17.0682 16.0132 16.0001 16.9289 14.6297C17.8446 13.2593 18.3333 11.6481 18.3333 9.99996C18.3333 8.90561 18.1177 7.82198 17.699 6.81093C17.2802 5.79988 16.6663 4.88122 15.8925 4.1074C15.1187 3.33358 14.2 2.71975 13.189 2.30096C12.1779 1.88217 11.0943 1.66663 9.99996 1.66663ZM9.99996 16.6666C8.68142 16.6666 7.39249 16.2756 6.29616 15.5431C5.19983 14.8105 4.34535 13.7694 3.84077 12.5512C3.33618 11.333 3.20416 9.99256 3.46139 8.69936C3.71863 7.40615 4.35357 6.21826 5.28592 5.28591C6.21827 4.35356 7.40615 3.71863 8.69936 3.46139C9.99257 3.20416 11.333 3.33618 12.5512 3.84076C13.7694 4.34535 14.8105 5.19983 15.5431 6.29616C16.2756 7.39249 16.6666 8.68142 16.6666 9.99996C16.6666 11.7681 15.9643 13.4638 14.714 14.714C13.4638 15.9642 11.7681 16.6666 9.99996 16.6666Z" fill="#AEAEAE"/>
</svg>
