<svg width="16" height="16" viewBox="0 0 16 16" fill="none" xmlns="http://www.w3.org/2000/svg">
<path d="M14.6667 6.73331C14.7334 6.39998 14.4667 5.99998 14.1334 5.99998L10.3334 5.46665L8.60004 1.99998C8.53337 1.86665 8.46671 1.79998 8.33337 1.73331C8.00004 1.53331 7.60004 1.66665 7.40004 1.99998L5.73337 5.46665L1.93337 5.99998C1.73337 5.99998 1.60004 6.06665 1.53337 6.19998C1.26671 6.46665 1.26671 6.86665 1.53337 7.13331L4.26671 9.79998L3.60004 13.6C3.60004 13.7333 3.60004 13.8666 3.66671 14C3.86671 14.3333 4.26671 14.4666 4.60004 14.2666L8.00004 12.4666L11.4 14.2666C11.4667 14.3333 11.6 14.3333 11.7334 14.3333C11.8 14.3333 11.8 14.3333 11.8667 14.3333C12.2 14.2666 12.4667 13.9333 12.4 13.5333L11.7334 9.73331L14.4667 7.06665C14.6 6.99998 14.6667 6.86665 14.6667 6.73331Z" fill="#5200FF"/>
</svg>
