<svg width="20" height="20" viewBox="0 0 20 20" fill="none" xmlns="http://www.w3.org/2000/svg">
<path d="M17.926 8.76986L17.8341 8.41987H10.2429V11.5797H14.7834C14.53 12.544 13.9541 13.3971 13.1475 14.0025C12.341 14.608 11.3506 14.9309 10.3348 14.9196C9.00916 14.9089 7.73553 14.4131 6.76362 13.5297C6.28585 13.0682 5.90566 12.5188 5.64478 11.9131C5.38392 11.3075 5.2475 10.6573 5.24335 9.99981C5.25876 8.67936 5.7922 7.41535 6.73302 6.46997C7.6912 5.58036 8.96385 5.08932 10.2837 5.10002C11.4142 5.10855 12.5025 5.52099 13.3447 6.25997L15.5894 4.00006C14.11 2.70648 12.195 1.99422 10.2123 2.00014C9.1216 1.99379 8.04036 2.19805 7.03021 2.60125C6.02007 3.00444 5.10085 3.59869 4.32505 4.35005C2.84935 5.85227 2.01736 7.85171 2.00027 9.93691C1.98319 12.0221 2.78233 14.0343 4.23323 15.5596C5.03708 16.3445 5.99249 16.9645 7.04361 17.3834C8.09474 17.8024 9.22047 18.0118 10.3552 17.9995C11.3841 18.007 12.4039 17.8097 13.3528 17.4195C14.3016 17.0293 15.1597 16.4544 15.8751 15.7296C17.279 14.2167 18.0384 12.2344 17.9974 10.1898C18.0084 9.71542 17.9845 9.24094 17.926 8.76986Z" fill="#5200FF"/>
</svg>
