<svg width="15" height="18" viewBox="0 0 15 18" fill="none" xmlns="http://www.w3.org/2000/svg">
<path d="M1.16666 8.99999C0.945648 8.99999 0.733686 9.08779 0.577406 9.24407C0.421126 9.40035 0.333328 9.61231 0.333328 9.83332V16.5C0.333328 16.721 0.421126 16.933 0.577406 17.0892C0.733686 17.2455 0.945648 17.3333 1.16666 17.3333C1.38768 17.3333 1.59964 17.2455 1.75592 17.0892C1.9122 16.933 1.99999 16.721 1.99999 16.5V9.83332C1.99999 9.61231 1.9122 9.40035 1.75592 9.24407C1.59964 9.08779 1.38768 8.99999 1.16666 8.99999ZM5.33333 0.666656C5.11231 0.666656 4.90035 0.754454 4.74407 0.910734C4.58779 1.06701 4.5 1.27898 4.5 1.49999V16.5C4.5 16.721 4.58779 16.933 4.74407 17.0892C4.90035 17.2455 5.11231 17.3333 5.33333 17.3333C5.55434 17.3333 5.7663 17.2455 5.92258 17.0892C6.07886 16.933 6.16666 16.721 6.16666 16.5V1.49999C6.16666 1.27898 6.07886 1.06701 5.92258 0.910734C5.7663 0.754454 5.55434 0.666656 5.33333 0.666656ZM13.6667 12.3333C13.4456 12.3333 13.2337 12.4211 13.0774 12.5774C12.9211 12.7337 12.8333 12.9456 12.8333 13.1667V16.5C12.8333 16.721 12.9211 16.933 13.0774 17.0892C13.2337 17.2455 13.4456 17.3333 13.6667 17.3333C13.8877 17.3333 14.0996 17.2455 14.2559 17.0892C14.4122 16.933 14.5 16.721 14.5 16.5V13.1667C14.5 12.9456 14.4122 12.7337 14.2559 12.5774C14.0996 12.4211 13.8877 12.3333 13.6667 12.3333ZM9.5 5.66666C9.27898 5.66666 9.06702 5.75445 8.91074 5.91073C8.75446 6.06701 8.66666 6.27898 8.66666 6.49999V16.5C8.66666 16.721 8.75446 16.933 8.91074 17.0892C9.06702 17.2455 9.27898 17.3333 9.5 17.3333C9.72101 17.3333 9.93297 17.2455 10.0893 17.0892C10.2455 16.933 10.3333 16.721 10.3333 16.5V6.49999C10.3333 6.27898 10.2455 6.06701 10.0893 5.91073C9.93297 5.75445 9.72101 5.66666 9.5 5.66666Z" fill="#111111"/>
</svg>
