<svg width="64" height="64" viewBox="0 0 64 64" fill="none" xmlns="http://www.w3.org/2000/svg">
<path opacity="0.4" d="M40 24C44.4183 24 48 20.4183 48 16C48 11.5817 44.4183 8 40 8C35.5817 8 32 11.5817 32 16C32 20.4183 35.5817 24 40 24Z" fill="url(#paint0_linear_16_467)"/>
<path opacity="0.4" d="M42.6667 53.3333C50.0305 53.3333 56 49.7515 56 45.3333C56 40.915 50.0305 37.3333 42.6667 37.3333C35.3029 37.3333 29.3334 40.915 29.3334 45.3333C29.3334 49.7515 35.3029 53.3333 42.6667 53.3333Z" fill="url(#paint1_linear_16_467)"/>
<path d="M24.0026 26.6666C29.8936 26.6666 34.6693 21.891 34.6693 15.9999C34.6693 10.1089 29.8936 5.33325 24.0026 5.33325C18.1116 5.33325 13.3359 10.1089 13.3359 15.9999C13.3359 21.891 18.1116 26.6666 24.0026 26.6666Z" fill="url(#paint2_linear_16_467)"/>
<path d="M24.0026 56.0028C34.3119 56.0028 42.6693 51.2271 42.6693 45.3361C42.6693 39.4451 34.3119 34.6694 24.0026 34.6694C13.6933 34.6694 5.33594 39.4451 5.33594 45.3361C5.33594 51.2271 13.6933 56.0028 24.0026 56.0028Z" fill="url(#paint3_linear_16_467)"/>
<defs>
<linearGradient id="paint0_linear_16_467" x1="48" y1="24" x2="30.4777" y2="22.1095" gradientUnits="userSpaceOnUse">
<stop stop-color="#FF4D00"/>
<stop offset="1" stop-color="#FF9C41"/>
</linearGradient>
<linearGradient id="paint1_linear_16_467" x1="56" y1="53.3333" x2="27.3816" y2="48.1872" gradientUnits="userSpaceOnUse">
<stop stop-color="#FF4D00"/>
<stop offset="1" stop-color="#FF9C41"/>
</linearGradient>
<linearGradient id="paint2_linear_16_467" x1="34.6693" y1="26.6666" x2="11.3062" y2="24.1459" gradientUnits="userSpaceOnUse">
<stop stop-color="#FF4D00"/>
<stop offset="1" stop-color="#FF9C41"/>
</linearGradient>
<linearGradient id="paint3_linear_16_467" x1="42.6693" y1="56.0028" x2="2.73174" y2="48.4622" gradientUnits="userSpaceOnUse">
<stop stop-color="#FF4D00"/>
<stop offset="1" stop-color="#FF9C41"/>
</linearGradient>
</defs>
</svg>
