<svg width="64" height="64" viewBox="0 0 64 64" fill="none" xmlns="http://www.w3.org/2000/svg">
<path d="M40.671 28.504C38.04 25.3559 36.7243 23.7819 35.212 24.0243C33.7 24.2668 32.9926 26.1651 31.5776 29.9619L31.2115 30.944C30.8094 32.0229 30.6083 32.5624 30.2171 32.9597C29.8262 33.3573 29.2891 33.5675 28.215 33.9883L27.2374 34.3712C23.4578 35.8515 21.5681 36.5915 21.3526 38.1043C21.1371 39.6171 22.7385 40.9008 25.9413 43.4677L26.7699 44.132C27.68 44.8616 28.1352 45.2264 28.3984 45.7256C28.6619 46.2248 28.7038 46.8021 28.7878 47.9565L28.864 49.0077C29.1592 53.0707 29.307 55.1021 30.6859 55.7947C32.0651 56.4872 33.7622 55.3821 37.1566 53.172L38.0347 52.6003C38.9992 51.9723 39.4816 51.6581 40.0355 51.5693C40.5896 51.4805 41.1526 51.6269 42.2782 51.92L43.3032 52.1867C47.2651 53.2173 49.2462 53.7328 50.3139 52.648C51.3816 51.5632 50.8294 49.5965 49.7243 45.6635L49.4384 44.6459C49.1243 43.5283 48.9675 42.9693 49.0464 42.4152C49.1254 41.8611 49.4312 41.3744 50.0432 40.4008L50.6003 39.5147C52.7536 36.0885 53.8304 34.3757 53.1112 33.0128C52.392 31.6499 50.3536 31.5395 46.2763 31.3189L45.2214 31.2616C44.0627 31.1989 43.4835 31.1677 42.9782 30.9139C42.4731 30.6603 42.0992 30.2131 41.3515 29.3184L40.671 28.504Z" fill="url(#paint0_linear_16_461)"/>
<path opacity="0.5" d="M27.5498 11.3386C31.0578 7.14117 32.812 5.04245 34.8282 5.36571C36.8445 5.68896 37.788 8.22011 39.6744 13.2824L40.1624 14.592C40.6986 16.0306 40.9666 16.7498 41.4882 17.2797C42.0098 17.8095 42.7258 18.0899 44.1578 18.6508L45.4613 19.1614C50.5008 21.1351 53.0202 22.1219 53.3077 24.139C53.5952 26.1561 51.4597 27.8674 47.1893 31.2903L46.0845 32.1759C44.8712 33.1487 44.2642 33.6348 43.913 34.3007C43.5618 34.9663 43.5058 35.7362 43.3941 37.2754L43.2922 38.677C42.8986 44.094 42.7018 46.8028 40.8632 47.726C39.0245 48.6495 36.7616 47.1762 32.2357 44.2292L31.0648 43.4668C29.7786 42.6295 29.1357 42.2108 28.397 42.0924C27.6584 41.974 26.908 42.1692 25.4067 42.5599L24.0401 42.9154C18.7576 44.2898 16.1163 44.977 14.6925 43.5306C13.2688 42.0842 14.0054 39.462 15.4788 34.2178L15.8599 32.8612C16.2786 31.3708 16.4879 30.6258 16.3826 29.8868C16.2774 29.1482 15.8694 28.4991 15.0536 27.201L14.3107 26.0193C11.4396 21.4515 10.004 19.1676 10.9628 17.3503C11.9216 15.533 14.6397 15.3859 20.0761 15.0917L21.4826 15.0155C23.0274 14.9319 23.7999 14.8901 24.4734 14.5519C25.147 14.2137 25.6454 13.6173 26.6423 12.4245L27.5498 11.3386Z" fill="url(#paint1_linear_16_461)"/>
<defs>
<linearGradient id="paint0_linear_16_461" x1="53.3334" y1="56" x2="18.2888" y2="52.219" gradientUnits="userSpaceOnUse">
<stop stop-color="#FF4D00"/>
<stop offset="1" stop-color="#FF9C41"/>
</linearGradient>
<linearGradient id="paint1_linear_16_461" x1="53.3333" y1="47.9999" x2="6.6072" y2="42.9586" gradientUnits="userSpaceOnUse">
<stop stop-color="#FF4D00"/>
<stop offset="1" stop-color="#FF9C41"/>
</linearGradient>
</defs>
</svg>
