<svg width="18" height="18" viewBox="0 0 18 18" fill="none" xmlns="http://www.w3.org/2000/svg">
<path d="M7.33334 9.83332H1.50001C1.27899 9.83332 1.06703 9.92112 0.910749 10.0774C0.754469 10.2337 0.666672 10.4456 0.666672 10.6667V16.5C0.666672 16.721 0.754469 16.933 0.910749 17.0892C1.06703 17.2455 1.27899 17.3333 1.50001 17.3333H7.33334C7.55435 17.3333 7.76631 17.2455 7.92259 17.0892C8.07887 16.933 8.16667 16.721 8.16667 16.5V10.6667C8.16667 10.4456 8.07887 10.2337 7.92259 10.0774C7.76631 9.92112 7.55435 9.83332 7.33334 9.83332ZM6.5 15.6667H2.33334V11.5H6.5V15.6667ZM16.5 0.666656H10.6667C10.4457 0.666656 10.2337 0.754454 10.0774 0.910734C9.92114 1.06701 9.83334 1.27898 9.83334 1.49999V7.33332C9.83334 7.55434 9.92114 7.7663 10.0774 7.92258C10.2337 8.07886 10.4457 8.16666 10.6667 8.16666H16.5C16.721 8.16666 16.933 8.07886 17.0893 7.92258C17.2455 7.7663 17.3333 7.55434 17.3333 7.33332V1.49999C17.3333 1.27898 17.2455 1.06701 17.0893 0.910734C16.933 0.754454 16.721 0.666656 16.5 0.666656ZM15.6667 6.49999H11.5V2.33332H15.6667V6.49999ZM16.5 9.83332H10.6667C10.4457 9.83332 10.2337 9.92112 10.0774 10.0774C9.92114 10.2337 9.83334 10.4456 9.83334 10.6667V16.5C9.83334 16.721 9.92114 16.933 10.0774 17.0892C10.2337 17.2455 10.4457 17.3333 10.6667 17.3333H16.5C16.721 17.3333 16.933 17.2455 17.0893 17.0892C17.2455 16.933 17.3333 16.721 17.3333 16.5V10.6667C17.3333 10.4456 17.2455 10.2337 17.0893 10.0774C16.933 9.92112 16.721 9.83332 16.5 9.83332ZM15.6667 15.6667H11.5V11.5H15.6667V15.6667ZM7.33334 0.666656H1.50001C1.27899 0.666656 1.06703 0.754454 0.910749 0.910734C0.754469 1.06701 0.666672 1.27898 0.666672 1.49999V7.33332C0.666672 7.55434 0.754469 7.7663 0.910749 7.92258C1.06703 8.07886 1.27899 8.16666 1.50001 8.16666H7.33334C7.55435 8.16666 7.76631 8.07886 7.92259 7.92258C8.07887 7.7663 8.16667 7.55434 8.16667 7.33332V1.49999C8.16667 1.27898 8.07887 1.06701 7.92259 0.910734C7.76631 0.754454 7.55435 0.666656 7.33334 0.666656ZM6.5 6.49999H2.33334V2.33332H6.5V6.49999Z" fill="#111111"/>
</svg>
