<svg width="18" height="16" viewBox="0 0 18 16" fill="none" xmlns="http://www.w3.org/2000/svg">
<path d="M15.8 2.16667C14.9114 1.28725 13.7378 0.754393 12.4909 0.664235C11.2439 0.574078 10.0059 0.932561 9.00001 1.675C7.93972 0.886365 6.62 0.52876 5.30661 0.674198C3.99321 0.819637 2.78371 1.45732 1.92165 2.45882C1.05959 3.46033 0.609024 4.75127 0.660673 6.07168C0.712322 7.39209 1.26235 8.64389 2.20001 9.575L7.20001 14.6167C7.66876 15.0848 8.30417 15.3478 8.96667 15.3478C9.62918 15.3478 10.2646 15.0848 10.7333 14.6167L15.7333 9.575C16.2258 9.09387 16.6183 8.52017 16.8883 7.88686C17.1583 7.25355 17.3005 6.57313 17.3067 5.88469C17.3129 5.19626 17.183 4.51338 16.9244 3.87532C16.6658 3.23725 16.2837 2.65658 15.8 2.16667ZM14.625 8.38333L9.62501 13.3833C9.54754 13.4614 9.45537 13.5234 9.35382 13.5657C9.25227 13.6081 9.14335 13.6298 9.03334 13.6298C8.92333 13.6298 8.81441 13.6081 8.71286 13.5657C8.61131 13.5234 8.51914 13.4614 8.44167 13.3833L3.44167 8.38333C2.78814 7.71529 2.42218 6.81789 2.42218 5.88333C2.42218 4.94878 2.78814 4.05138 3.44167 3.38333C4.10764 2.72582 5.00582 2.35714 5.94167 2.35714C6.87753 2.35714 7.77571 2.72582 8.44167 3.38333C8.51914 3.46144 8.61131 3.52344 8.71286 3.56574C8.81441 3.60805 8.92333 3.62983 9.03334 3.62983C9.14335 3.62983 9.25227 3.60805 9.35382 3.56574C9.45537 3.52344 9.54754 3.46144 9.62501 3.38333C10.309 2.83907 11.1693 2.5656 12.042 2.61508C12.9147 2.66455 13.7387 3.03351 14.3568 3.65159C14.9748 4.26966 15.3438 5.09361 15.3933 5.9663C15.4427 6.83899 15.1693 7.69936 14.625 8.38333Z" fill="#111111"/>
</svg>
