<svg width="64" height="64" viewBox="0 0 64 64" fill="none" xmlns="http://www.w3.org/2000/svg">
<path opacity="0.5" fill-rule="evenodd" clip-rule="evenodd" d="M24.435 10.0675C24.766 11.1213 24.18 12.2439 23.1262 12.5749C13.9707 15.4505 7.33337 24.005 7.33337 34.1046C7.33337 46.5654 17.4348 56.6667 29.8955 56.6667C39.9952 56.6667 48.5496 50.0294 51.4254 40.874C51.7563 39.8201 52.879 39.2342 53.9326 39.5652C54.9864 39.8961 55.5726 41.0187 55.2414 42.0726C51.8574 52.8473 41.7923 60.6667 29.8955 60.6667C15.2257 60.6667 3.33337 48.7745 3.33337 34.1046C3.33337 22.2079 11.1529 12.1429 21.9276 8.7587C22.9815 8.42771 24.104 9.01368 24.435 10.0675Z" fill="url(#paint0_linear_16_458)"/>
<path d="M58.435 26.526C55.604 16.3849 47.615 8.39579 37.4739 5.56499C33.091 4.34152 29.3334 8.14443 29.3334 12.6949V30.5469C29.3334 32.8221 31.1779 34.6666 33.4531 34.6666H51.3051C55.8555 34.6666 59.6584 30.909 58.435 26.526Z" fill="url(#paint1_linear_16_458)"/>
<defs>
<linearGradient id="paint0_linear_16_458" x1="55.3339" y1="60.6667" x2="-1.6141" y2="54.5226" gradientUnits="userSpaceOnUse">
<stop stop-color="#FF4D00"/>
<stop offset="1" stop-color="#FF9C41"/>
</linearGradient>
<linearGradient id="paint1_linear_16_458" x1="58.6667" y1="34.6666" x2="26.5425" y2="31.2007" gradientUnits="userSpaceOnUse">
<stop stop-color="#FF4D00"/>
<stop offset="1" stop-color="#FF9C41"/>
</linearGradient>
</defs>
</svg>
