<svg width="20" height="20" viewBox="0 0 20 20" fill="none" xmlns="http://www.w3.org/2000/svg">
<g clip-path="url(#clip0_75_1278)">
<path fill-rule="evenodd" clip-rule="evenodd" d="M10 15C12.7614 15 15 12.7614 15 10C15 7.23857 12.7614 5 10 5C7.23857 5 5 7.23857 5 10C5 12.7614 7.23857 15 10 15ZM10 13.3333C11.8409 13.3333 13.3333 11.8409 13.3333 10C13.3333 8.15905 11.8409 6.66667 10 6.66667C8.15905 6.66667 6.66667 8.15905 6.66667 10C6.66667 11.8409 8.15905 13.3333 10 13.3333Z" fill="#5200FF"/>
<path d="M15 4.1665C14.5397 4.1665 14.1667 4.5396 14.1667 4.99984C14.1667 5.46007 14.5397 5.83317 15 5.83317C15.4602 5.83317 15.8333 5.46007 15.8333 4.99984C15.8333 4.5396 15.4602 4.1665 15 4.1665Z" fill="#5200FF"/>
<path fill-rule="evenodd" clip-rule="evenodd" d="M1.37831 3.56355C0.833344 4.6331 0.833344 6.03324 0.833344 8.8335V11.1668C0.833344 13.9671 0.833344 15.3672 1.37831 16.4367C1.85768 17.3776 2.62258 18.1425 3.56339 18.6218C4.63295 19.1668 6.03308 19.1668 8.83334 19.1668H11.1667C13.9669 19.1668 15.3671 19.1668 16.4366 18.6218C17.3774 18.1425 18.1423 17.3776 18.6217 16.4367C19.1667 15.3672 19.1667 13.9671 19.1667 11.1668V8.8335C19.1667 6.03324 19.1667 4.6331 18.6217 3.56355C18.1423 2.62273 17.3774 1.85783 16.4366 1.37846C15.3671 0.833496 13.9669 0.833496 11.1667 0.833496H8.83334C6.03308 0.833496 4.63295 0.833496 3.56339 1.37846C2.62258 1.85783 1.85768 2.62273 1.37831 3.56355ZM11.1667 2.50016H8.83334C7.40571 2.50016 6.43522 2.50146 5.68508 2.56275C4.95438 2.62245 4.58071 2.73065 4.32004 2.86347C3.69283 3.18305 3.1829 3.69299 2.86332 4.3202C2.7305 4.58086 2.62229 4.95453 2.56259 5.68523C2.50131 6.43537 2.50001 7.40586 2.50001 8.8335V11.1668C2.50001 12.5945 2.50131 13.5649 2.56259 14.3151C2.62229 15.0458 2.7305 15.4195 2.86332 15.6802C3.1829 16.3073 3.69283 16.8172 4.32004 17.1368C4.58071 17.2697 4.95438 17.3779 5.68508 17.4376C6.43522 17.4988 7.40571 17.5002 8.83334 17.5002H11.1667C12.5943 17.5002 13.5648 17.4988 14.3149 17.4376C15.0457 17.3779 15.4193 17.2697 15.68 17.1368C16.3072 16.8172 16.8171 16.3073 17.1367 15.6802C17.2695 15.4195 17.3778 15.0458 17.4374 14.3151C17.4987 13.5649 17.5 12.5945 17.5 11.1668V8.8335C17.5 7.40586 17.4987 6.43537 17.4374 5.68523C17.3778 4.95453 17.2695 4.58086 17.1367 4.3202C16.8171 3.69299 16.3072 3.18305 15.68 2.86347C15.4193 2.73065 15.0457 2.62245 14.3149 2.56275C13.5648 2.50146 12.5943 2.50016 11.1667 2.50016Z" fill="#5200FF"/>
</g>
<defs>
<clipPath id="clip0_75_1278">
<rect width="20" height="20" fill="white"/>
</clipPath>
</defs>
</svg>
