<svg width="64" height="64" viewBox="0 0 64 64" fill="none" xmlns="http://www.w3.org/2000/svg">
<path fill-rule="evenodd" clip-rule="evenodd" d="M23.1264 20.112H40.8736C49.8731 20.112 54.3728 20.112 56.9006 22.7435C59.428 25.3751 58.8334 29.4408 57.644 37.572L56.516 45.2829C55.5832 51.6595 55.1171 54.8477 52.7246 56.7571C50.332 58.6664 46.8032 58.6664 39.7456 58.6664H24.2543C17.1969 58.6664 13.6681 58.6664 11.2756 56.7571C8.88311 54.8477 8.41673 51.6595 7.48399 45.2829L6.35607 37.572C5.16666 29.4408 4.57196 25.3751 7.09956 22.7435C9.62716 20.112 14.1269 20.112 23.1264 20.112ZM21.3334 48.0003C21.3334 46.8957 22.3283 46.0003 23.5556 46.0003H40.4446C41.6718 46.0003 42.6667 46.8957 42.6667 48.0003C42.6667 49.1048 41.6718 50.0003 40.4446 50.0003H23.5556C22.3283 50.0003 21.3334 49.1048 21.3334 48.0003Z" fill="url(#paint0_linear_16_445)"/>
<g opacity="0.4">
<path d="M22.6935 5.33336H41.3069C41.9269 5.3332 42.4024 5.3331 42.8179 5.37374C45.772 5.66272 48.1899 7.43888 49.2155 9.83142H14.7852C15.8105 7.43888 18.2285 5.66272 21.1827 5.37374C21.5982 5.3331 22.0735 5.3332 22.6935 5.33336Z" fill="url(#paint1_linear_16_445)"/>
</g>
<g opacity="0.7">
<path d="M16.8285 12.5938C13.1202 12.5938 10.0795 14.8331 9.06473 17.8039C9.04359 17.8658 9.02332 17.928 9.00391 17.9906C10.0656 17.6691 11.1706 17.459 12.2892 17.3156C15.1702 16.9463 18.8111 16.9464 23.0405 16.9467H23.3564H41.4195C45.6488 16.9464 49.2899 16.9463 52.1707 17.3156C53.2893 17.459 54.3944 17.6691 55.456 17.9906C55.4365 17.928 55.4163 17.8658 55.3952 17.8039C54.3805 14.8331 51.3397 12.5938 47.6315 12.5938H16.8285Z" fill="url(#paint2_linear_16_445)"/>
</g>
<defs>
<linearGradient id="paint0_linear_16_445" x1="58.6667" y1="58.6664" x2="0.866698" y2="50.0399" gradientUnits="userSpaceOnUse">
<stop stop-color="#FF4D00"/>
<stop offset="1" stop-color="#FF9C41"/>
</linearGradient>
<linearGradient id="paint1_linear_16_445" x1="49.2155" y1="9.83142" x2="26.5374" y2="-8.89718" gradientUnits="userSpaceOnUse">
<stop stop-color="#FF4D00"/>
<stop offset="1" stop-color="#FF9C41"/>
</linearGradient>
<linearGradient id="paint2_linear_16_445" x1="55.456" y1="17.9906" x2="27.8227" y2="-7.67101" gradientUnits="userSpaceOnUse">
<stop stop-color="#FF4D00"/>
<stop offset="1" stop-color="#FF9C41"/>
</linearGradient>
</defs>
</svg>
