<svg width="18" height="18" viewBox="0 0 18 18" fill="none" xmlns="http://www.w3.org/2000/svg">
<path d="M16.2825 15.2175L13.5001 12.4575C14.5801 11.1108 15.1032 9.40148 14.9617 7.68098C14.8201 5.96048 14.0248 4.35959 12.7392 3.20749C11.4536 2.05538 9.77541 1.43964 8.04974 1.48686C6.32408 1.53408 4.68209 2.24068 3.46141 3.46136C2.24072 4.68205 1.53412 6.32403 1.4869 8.0497C1.43968 9.77536 2.05543 11.4535 3.20753 12.7391C4.35964 14.0248 5.96053 14.8201 7.68103 14.9616C9.40152 15.1031 11.1109 14.5801 12.4576 13.5L15.2176 16.26C15.2873 16.3303 15.3702 16.3861 15.4616 16.4242C15.553 16.4622 15.651 16.4819 15.7501 16.4819C15.8491 16.4819 15.9471 16.4622 16.0385 16.4242C16.1299 16.3861 16.2128 16.3303 16.2825 16.26C16.4177 16.1202 16.4933 15.9333 16.4933 15.7388C16.4933 15.5443 16.4177 15.3574 16.2825 15.2175ZM8.25005 13.5C7.2117 13.5 6.19666 13.1921 5.33331 12.6152C4.46995 12.0383 3.79704 11.2184 3.39968 10.2591C3.00232 9.29978 2.89836 8.24418 3.10093 7.22578C3.3035 6.20738 3.80351 5.27192 4.53774 4.53769C5.27197 3.80347 6.20743 3.30345 7.22583 3.10088C8.24423 2.89831 9.29983 3.00228 10.2591 3.39964C11.2185 3.797 12.0384 4.4699 12.6153 5.33326C13.1921 6.19662 13.5001 7.21165 13.5001 8.25C13.5001 9.64239 12.9469 10.9777 11.9624 11.9623C10.9778 12.9469 9.64244 13.5 8.25005 13.5Z" fill="#AEAEAE"/>
</svg>
