<svg width="64" height="64" viewBox="0 0 64 64" fill="none" xmlns="http://www.w3.org/2000/svg">
<path fill-rule="evenodd" clip-rule="evenodd" d="M32 42.6667C42.3093 42.6667 50.6667 34.3093 50.6667 24C50.6667 13.6907 42.3093 5.33334 32 5.33334C21.6907 5.33334 13.3333 13.6907 13.3333 24C13.3333 34.3093 21.6907 42.6667 32 42.6667ZM32 16C31.2424 16 30.7357 16.9089 29.7224 18.7267L29.4603 19.197C29.1725 19.7136 29.0285 19.9718 28.804 20.1422C28.5795 20.3127 28.3 20.3759 27.7408 20.5024L27.2317 20.6176C25.2639 21.0629 24.28 21.2855 24.046 22.0382C23.8119 22.7909 24.4826 23.5753 25.8241 25.144L26.1712 25.5498C26.5524 25.9956 26.7429 26.2184 26.8288 26.4942C26.9144 26.7699 26.8856 27.0672 26.828 27.6621L26.7755 28.2035C26.5727 30.2965 26.4713 31.3429 27.084 31.8083C27.6971 32.2733 28.6181 31.8493 30.4605 31.0011L30.9371 30.7816C31.4608 30.5405 31.7224 30.42 32 30.42C32.2776 30.42 32.5392 30.5405 33.0629 30.7816L33.5395 31.0011C35.3819 31.8493 36.3029 32.2733 36.916 31.8083C37.5288 31.3429 37.4272 30.2965 37.2245 28.2035L37.172 27.6621C37.1144 27.0672 37.0856 26.7699 37.1712 26.4942C37.2571 26.2184 37.4477 25.9956 37.8288 25.5498L38.176 25.144C39.5173 23.5753 40.1883 22.7909 39.9541 22.0382C39.72 21.2855 38.736 21.0629 36.7683 20.6176L36.2592 20.5024C35.7 20.3759 35.4205 20.3127 35.196 20.1422C34.9715 19.9718 34.8275 19.7136 34.5397 19.197L34.2776 18.7267C33.2643 16.9089 32.7576 16 32 16Z" fill="url(#paint0_linear_16_455)"/>
<path opacity="0.5" d="M17.9046 46.1947L19.603 40L21.3333 34.6667H42.6667L44.3971 40L46.0955 46.1947C47.7709 52.3061 48.6088 55.3619 47.4907 57.0349C47.0989 57.6211 46.5733 58.0917 45.9635 58.4021C44.2232 59.2883 41.536 57.8883 36.1619 55.088C34.3736 54.1563 33.4795 53.6904 32.5296 53.5891C32.1773 53.5515 31.8227 53.5515 31.4704 53.5891C30.5205 53.6904 29.6264 54.1563 27.8381 55.088C22.464 57.8883 19.7769 59.2883 18.0366 58.4021C17.4267 58.0917 16.9011 57.6211 16.5093 57.0349C15.3913 55.3619 16.2291 52.3061 17.9046 46.1947Z" fill="url(#paint1_linear_16_455)"/>
<defs>
<linearGradient id="paint0_linear_16_455" x1="50.6667" y1="42.6667" x2="9.78135" y2="38.2555" gradientUnits="userSpaceOnUse">
<stop stop-color="#FF4D00"/>
<stop offset="1" stop-color="#FF9C41"/>
</linearGradient>
<linearGradient id="paint1_linear_16_455" x1="48" y1="58.6666" x2="13.2663" y2="53.67" gradientUnits="userSpaceOnUse">
<stop stop-color="#FF4D00"/>
<stop offset="1" stop-color="#FF9C41"/>
</linearGradient>
</defs>
</svg>
