<svg width="20" height="20" viewBox="0 0 20 20" fill="none" xmlns="http://www.w3.org/2000/svg">
<path d="M10.0007 10.1233C12.7907 10.1233 15.0519 7.8616 15.0519 5.07117C15.0518 2.28074 12.7906 0.0195312 10.0007 0.0195312C7.20976 0.0195312 4.94761 2.28074 4.94761 5.07117C4.94757 7.8616 7.20976 10.1233 10.0007 10.1233ZM10.0007 2.58578C11.373 2.58578 12.4855 3.69836 12.4855 5.07113C12.4855 6.44395 11.373 7.55648 10.0007 7.55648C8.62695 7.55648 7.51484 6.44395 7.51484 5.07113C7.51484 3.69836 8.62691 2.58578 10.0007 2.58578ZM15.8232 10.7398C15.5387 10.1667 14.7487 9.69008 13.6985 10.5171C12.2789 11.635 10.0007 11.635 10.0007 11.635C10.0007 11.635 7.72093 11.635 6.30136 10.5171C5.25164 9.69008 4.46218 10.1667 4.17711 10.7398C3.67906 11.7383 4.24093 12.2213 5.50898 13.0351C6.59183 13.7305 8.08011 13.9903 9.04066 14.0873L8.23851 14.8894C7.1089 16.0185 6.01875 17.1096 5.26191 17.8665C4.80918 18.3187 4.80918 19.0522 5.26191 19.5044L5.39785 19.6414C5.85058 20.0936 6.58355 20.0936 7.03625 19.6414L10.0128 16.6643C11.1434 17.7939 12.2336 18.8845 12.9904 19.6414C13.4431 20.0936 14.1761 20.0936 14.6288 19.6414L14.7647 19.5044C15.2175 19.0517 15.2175 18.3187 14.7647 17.866L11.7881 14.8895L10.9841 14.0848C11.9455 13.9854 13.4173 13.7247 14.4913 13.0352C15.7594 12.2212 16.3203 11.7383 15.8232 10.7398Z" fill="#5200FF"/>
</svg>
