<svg width="14" height="18" viewBox="0 0 14 18" fill="none" xmlns="http://www.w3.org/2000/svg">
<path d="M13.3584 2.04166C13.2616 1.96334 13.1484 1.90772 13.0273 1.87888C12.9062 1.85004 12.7801 1.84871 12.6584 1.87499C11.7679 2.06161 10.8487 2.06399 9.95724 1.88198C9.06582 1.69997 8.22108 1.33742 7.47504 0.816659C7.33555 0.719886 7.16982 0.66803 7.00004 0.66803C6.83027 0.66803 6.66454 0.719886 6.52504 0.816659C5.77901 1.33742 4.93427 1.69997 4.04285 1.88198C3.15143 2.06399 2.23218 2.06161 1.34171 1.87499C1.21999 1.84871 1.09393 1.85004 0.972796 1.87888C0.851659 1.90772 0.738525 1.96334 0.641712 2.04166C0.545028 2.12009 0.467146 2.21919 0.413789 2.33167C0.360432 2.44415 0.332956 2.56716 0.333379 2.69166V8.89999C0.332638 10.0948 0.617356 11.2725 1.16382 12.335C1.71029 13.3975 2.5027 14.314 3.47505 15.0083L6.51671 17.175C6.65785 17.2755 6.82679 17.3295 7.00004 17.3295C7.1733 17.3295 7.34224 17.2755 7.48338 17.175L10.525 15.0083C11.4974 14.314 12.2898 13.3975 12.8363 12.335C13.3827 11.2725 13.6675 10.0948 13.6667 8.89999V2.69166C13.6671 2.56716 13.6397 2.44415 13.5863 2.33167C13.5329 2.21919 13.4551 2.12009 13.3584 2.04166ZM12 8.89999C12.0007 9.82896 11.7794 10.7446 11.3548 11.5708C10.9301 12.397 10.3142 13.1099 9.55838 13.65L7.00004 15.475L4.44171 13.65C3.68591 13.1099 3.07003 12.397 2.64534 11.5708C2.22064 10.7446 1.99941 9.82896 2.00005 8.89999V3.64999C3.74707 3.79952 5.49675 3.39418 7.00004 2.49166C8.50334 3.39418 10.253 3.79952 12 3.64999V8.89999ZM8.28338 6.99166L6.04171 9.24166L5.30005 8.49166C5.14313 8.33474 4.9303 8.24658 4.70838 8.24658C4.48646 8.24658 4.27363 8.33474 4.11671 8.49166C3.95979 8.64858 3.87164 8.86141 3.87164 9.08333C3.87164 9.30524 3.95979 9.51807 4.11671 9.67499L5.45005 11.0083C5.52751 11.0864 5.61968 11.1484 5.72123 11.1907C5.82278 11.233 5.9317 11.2548 6.04171 11.2548C6.15172 11.2548 6.26064 11.233 6.36219 11.1907C6.46374 11.1484 6.55591 11.0864 6.63338 11.0083L9.50004 8.16666C9.65696 8.00974 9.74512 7.79691 9.74512 7.57499C9.74512 7.35307 9.65696 7.14025 9.50004 6.98333C9.34312 6.82641 9.1303 6.73825 8.90838 6.73825C8.68646 6.73825 8.47363 6.82641 8.31671 6.98333L8.28338 6.99166Z" fill="url(#paint0_linear_68_3490)"/>
<defs>
<linearGradient id="paint0_linear_68_3490" x1="13.6667" y1="17.3295" x2="-0.995867" y2="16.0635" gradientUnits="userSpaceOnUse">
<stop stop-color="#FF4D00"/>
<stop offset="1" stop-color="#FF9C41"/>
</linearGradient>
</defs>
</svg>
