<svg width="14" height="14" viewBox="0 0 14 14" fill="none" xmlns="http://www.w3.org/2000/svg">
<path d="M13.6667 5.73331C13.7334 5.39998 13.4667 4.99998 13.1334 4.99998L9.33337 4.46665L7.60004 0.999979C7.53337 0.866646 7.46671 0.799979 7.33337 0.733313C7.00004 0.533313 6.60004 0.666646 6.40004 0.999979L4.73337 4.46665L0.933374 4.99998C0.733374 4.99998 0.600041 5.06665 0.533374 5.19998C0.266707 5.46665 0.266707 5.86665 0.533374 6.13331L3.26671 8.79998L2.60004 12.6C2.60004 12.7333 2.60004 12.8666 2.66671 13C2.86671 13.3333 3.26671 13.4666 3.60004 13.2666L7.00004 11.4666L10.4 13.2666C10.4667 13.3333 10.6 13.3333 10.7334 13.3333C10.8 13.3333 10.8 13.3333 10.8667 13.3333C11.2 13.2666 11.4667 12.9333 11.4 12.5333L10.7334 8.73331L13.4667 6.06665C13.6 5.99998 13.6667 5.86665 13.6667 5.73331Z" fill="#5200FF"/>
</svg>
