<svg width="64" height="64" viewBox="0 0 64 64" fill="none" xmlns="http://www.w3.org/2000/svg">
<path d="M42.6666 16C42.6666 21.891 37.8909 26.6667 32 26.6667C26.1089 26.6667 21.3333 21.891 21.3333 16C21.3333 10.109 26.1089 5.33334 32 5.33334C37.8909 5.33334 42.6666 10.109 42.6666 16Z" fill="url(#paint0_linear_16_451)"/>
<path fill-rule="evenodd" clip-rule="evenodd" d="M44 58.6667C39.6003 58.6667 37.4003 58.6667 36.0336 57.2997C34.6667 55.9331 34.6667 53.7331 34.6667 49.3333C34.6667 44.9336 34.6667 42.7336 36.0336 41.3669C37.4003 40 39.6003 40 44 40C48.3998 40 50.5998 40 51.9664 41.3669C53.3334 42.7336 53.3334 44.9336 53.3334 49.3333C53.3334 53.7331 53.3334 55.9331 51.9664 57.2997C50.5998 58.6667 48.3998 58.6667 44 58.6667ZM49.248 47.3221C49.8555 46.7147 49.8555 45.7299 49.248 45.1224C48.6406 44.5147 47.6558 44.5147 47.0483 45.1224L41.9259 50.2445L40.9518 49.2704C40.3443 48.6629 39.3595 48.6629 38.752 49.2704C38.1446 49.8779 38.1446 50.8629 38.752 51.4704L40.8259 53.5443C41.4334 54.152 42.4184 54.152 43.0259 53.5443L49.248 47.3221Z" fill="url(#paint1_linear_16_451)"/>
<path opacity="0.5" d="M38.6064 58.4555C36.6702 58.5941 34.479 58.6667 32 58.6667C10.6667 58.6667 10.6667 53.2941 10.6667 46.6667C10.6667 40.0392 20.2179 34.6667 32 34.6667C39.6816 34.6667 46.415 36.9504 50.1712 40.3765C48.7947 40 46.8632 40 44 40C39.6003 40 37.4003 40 36.0336 41.3669C34.6667 42.7336 34.6667 44.9336 34.6667 49.3333C34.6667 53.7331 34.6667 55.9331 36.0336 57.2997C36.667 57.9333 37.4792 58.2731 38.6064 58.4555Z" fill="url(#paint2_linear_16_451)"/>
<defs>
<linearGradient id="paint0_linear_16_451" x1="42.6666" y1="26.6667" x2="19.3036" y2="24.146" gradientUnits="userSpaceOnUse">
<stop stop-color="#FF4D00"/>
<stop offset="1" stop-color="#FF9C41"/>
</linearGradient>
<linearGradient id="paint1_linear_16_451" x1="53.3334" y1="58.6667" x2="32.8907" y2="56.4611" gradientUnits="userSpaceOnUse">
<stop stop-color="#FF4D00"/>
<stop offset="1" stop-color="#FF9C41"/>
</linearGradient>
<linearGradient id="paint2_linear_16_451" x1="50.1712" y1="58.6667" x2="7.74264" y2="51.1317" gradientUnits="userSpaceOnUse">
<stop stop-color="#FF4D00"/>
<stop offset="1" stop-color="#FF9C41"/>
</linearGradient>
</defs>
</svg>
