<svg width="20" height="20" viewBox="0 0 20 20" fill="none" xmlns="http://www.w3.org/2000/svg">
<path d="M11.9144 9.84383C11.6019 9.72633 11.6019 9.27758 11.5825 8.96508C11.5044 7.85195 11.895 6.15258 11.4262 5.43008C11.0944 5.00008 9.4925 5.03945 8.51625 5.0982C8.2425 5.13758 7.91062 5.1957 7.67625 5.3132C7.44187 5.4307 7.2075 5.6257 7.2075 5.80133C7.2075 6.05508 7.79375 6.01633 8.00812 6.3482C8.2425 6.70008 8.2425 7.46133 8.2425 8.08633C8.2425 8.80883 8.125 9.76633 7.8325 9.80508C7.38312 9.82445 7.12937 9.37508 6.895 9.0432C6.42625 8.39883 5.9575 7.59758 5.60562 6.81633C5.43 6.40633 5.33187 5.95695 5.07812 5.78133C4.6875 5.50758 3.98437 5.4882 3.30062 5.50758C2.67562 5.52695 1.77687 5.44883 1.60125 5.82008C1.46437 6.23008 1.7575 6.6207 1.91375 6.9532C2.71437 8.69133 3.57375 10.2151 4.62875 11.6601C5.60562 13.0076 6.52312 14.082 8.32 14.6482C8.82812 14.8045 11.0544 15.2538 11.5037 14.6482C11.66 14.4138 11.6212 13.8863 11.6994 13.4957C11.7775 13.1051 11.875 12.7145 12.2462 12.6951C12.5587 12.6757 12.7344 12.9488 12.93 13.1445C13.145 13.3595 13.3206 13.5351 13.4769 13.7307C13.8481 14.102 14.2387 14.6095 14.7075 14.8051C15.3519 15.0788 16.3481 15.0007 17.2856 14.9613C18.0475 14.942 18.5944 14.7857 18.6531 14.3363C18.6925 13.9845 18.3012 13.477 18.0669 13.1838C17.4806 12.4613 17.2075 12.2463 16.5431 11.582C16.25 11.2888 15.8787 10.9763 15.8787 10.6251C15.8594 10.4101 16.035 10.2151 16.1912 10.0001C16.875 8.98445 17.5587 8.26195 18.1837 7.20695C18.3594 6.89445 18.77 6.17195 18.6137 5.82008C18.4381 5.42945 17.4612 5.54633 16.8556 5.54633C16.0744 5.54633 15.0587 5.48758 14.8631 5.64383C14.4919 5.89758 14.3356 6.3082 14.16 6.69883C13.7694 7.59758 13.2419 8.51508 12.695 9.19883C12.4994 9.4332 12.1294 9.92195 11.9144 9.84383Z" fill="#5200FF"/>
</svg>
